<?xml version="1.0" standalone="no"?>
<!DOCTYPE svg PUBLIC "-//W3C//DTD SVG 20010904//EN"
 "http://www.w3.org/TR/2001/REC-SVG-20010904/DTD/svg10.dtd">
<svg version="1.0" xmlns="http://www.w3.org/2000/svg"
 width="624" height="536" viewBox="0 0 500.000000 500.000000"
 preserveAspectRatio="xMidYMid meet">

<g transform="translate(0.000000,500.000000) scale(0.100000,-0.100000)"
fill="#000000" stroke="none">
<path d="M0 2500 l0 -2500 2500 0 2500 0 0 2500 0 2500 -2500 0 -2500 0 0
-2500z m2514 446 c54 -16 116 -60 116 -82 0 -20 -5 -18 -56 17 -130 89 -299
49 -377 -89 -27 -49 -30 -64 -35 -173 -3 -82 -8 -119 -16 -116 -7 3 -11 44
-10 123 1 108 3 124 27 170 31 62 103 127 160 148 54 19 132 20 191 2z m-13
-61 c73 -26 137 -102 152 -180 7 -39 -8 -68 -23 -45 -5 8 -10 26 -10 40 -1 39
-41 101 -88 135 -37 26 -53 30 -105 30 -46 0 -72 -6 -99 -22 -24 -14 -40 -18
-44 -12 -15 26 69 68 137 69 20 0 56 -7 80 -15z m743 -66 c48 -22 58 -66 54
-225 -3 -142 -3 -144 -31 -171 -26 -27 -32 -28 -143 -31 -196 -6 -204 2 -204
218 0 215 3 218 187 219 64 1 123 -4 137 -10z m-2224 -176 c0 -98 5 -185 10
-193 7 -12 33 -15 125 -15 104 0 118 2 131 19 11 15 14 59 14 193 0 166 1 173
20 173 19 0 20 -7 20 -185 0 -183 0 -186 -24 -210 -31 -30 -72 -38 -190 -33
-89 3 -98 5 -123 31 l-28 27 -3 185 -4 185 26 0 26 0 0 -177z m645 0 l140
-177 3 177 c2 169 3 177 22 177 19 0 20 -7 20 -210 l0 -210 -22 0 c-18 1 -57
44 -163 180 l-140 179 -3 -180 c-2 -171 -3 -179 -22 -179 -19 0 -20 7 -20 210
l0 210 23 0 c18 0 54 -40 162 -177z m365 -33 c0 -203 -1 -210 -20 -210 -19 0
-20 7 -20 210 0 203 1 210 20 210 19 0 20 -7 20 -210z m1726 194 c-3 -9 -6
-18 -6 -20 0 -2 -60 -4 -134 -4 -171 0 -166 5 -166 -165 0 -176 -6 -169 165
-175 123 -4 140 -7 143 -22 3 -17 -9 -18 -140 -18 -207 0 -211 5 -206 230 3
141 3 142 31 166 27 23 34 24 174 24 128 0 144 -2 139 -16z m144 -74 l0 -90
73 0 72 0 70 88 c44 54 79 88 93 90 12 2 22 0 22 -4 0 -4 -34 -49 -75 -99 -41
-51 -75 -96 -75 -99 0 -4 34 -49 75 -100 78 -97 87 -116 58 -116 -11 0 -51 42
-97 100 l-80 101 -65 -3 -66 -3 -3 -97 c-2 -90 -4 -98 -22 -98 -19 0 -20 8
-20 210 0 203 1 210 20 210 19 0 20 -7 20 -90z m-1668 -112 c-3 -155 -2 -165
20 -203 25 -42 76 -82 115 -90 13 -3 35 -7 49 -10 38 -8 23 -30 -19 -28 -70 4
-143 57 -183 133 -34 64 -23 360 14 360 4 0 6 -73 4 -162z m529 -77 c19 -20
29 -40 29 -60 0 -27 3 -31 28 -31 45 0 52 -15 52 -117 0 -81 -2 -94 -19 -103
-11 -5 -80 -10 -155 -10 -168 0 -166 -2 -166 119 0 95 7 111 52 111 22 0 28 5
28 20 0 28 26 77 47 89 33 19 73 12 104 -18z m947 -658 l-2 -168 -3 162 -3
163 -1208 3 -1207 2 1213 3 1212 2 -2 -167z m-525 -230 c-325 -2 -861 -2
-1190 0 -329 1 -63 2 592 2 655 0 924 -1 598 -2z"/>
<path d="M2982 2774 c-21 -14 -22 -21 -22 -164 0 -188 -4 -183 159 -178 73 2
114 7 123 16 10 9 13 53 13 163 0 138 -2 152 -19 165 -29 21 -223 20 -254 -2z"/>
<path d="M2562 2338 l3 -83 138 -3 137 -3 0 86 0 85 -140 0 -141 0 3 -82z"/>
</g>
</svg>
